HIERARCHY
ROOT pelvis
{
	OFFSET 0.000000 0.000000 0.000000
	CHANNELS 6 Xposition Yposition Zposition Zrotation Xrotation Yrotation
	JOINT lfemur
	{
		OFFSET 11.446000 0.000000 0.000000
		CHANNELS 3 Zrotation Xrotation Yrotation
		JOINT ltibia
		{
			OFFSET 0.000000 -42.030400 0.000000
			CHANNELS 3 Zrotation Xrotation Yrotation
			JOINT lfoot
			{
				OFFSET 0.000000 -39.930200 0.000000
				CHANNELS 3 Zrotation Xrotation Yrotation
				JOINT ltoes
				{
					OFFSET 0.000000 0.000000 11.775800
					CHANNELS 3 Zrotation Xrotation Yrotation
					End Site
					{
					    OFFSET 0.000000 0.000000 5.000000
					}
				}
			}
		}
	}
	JOINT rfemur
	{
		OFFSET -11.446000 0.000000 0.000000
		CHANNELS 3 Zrotation Xrotation Yrotation
		JOINT rtibia
		{
			OFFSET 0.000000 -42.030400 0.000000
			CHANNELS 3 Zrotation Xrotation Yrotation
			JOINT rfoot
			{
				OFFSET 0.000000 -39.930200 0.000000
				CHANNELS 3 Zrotation Xrotation Yrotation
				JOINT rtoes
				{
					OFFSET 0.000000 0.000000 11.775800
					CHANNELS 3 Zrotation Xrotation Yrotation
					End Site
					{
					    OFFSET 0.000000 0.000000 5.000000
					}
				}
			}
		}
	}
	JOINT thorax
	{
		OFFSET 0.000000 11.255600 -5.000000
		CHANNELS 3 Zrotation Xrotation Yrotation
		JOINT head
		{
			OFFSET 0.000000 43.799300 0.000000
			CHANNELS 3 Zrotation Xrotation Yrotation
			End Site
			{
			    OFFSET 0.000000 5.000000 0.000000
			}
		}
		JOINT lclavicle
		{
			OFFSET 0.000000 39.863000 0.000000
			CHANNELS 3 Zrotation Xrotation Yrotation
			JOINT lhumerus
			{
				OFFSET 17.380600 4.958300 0.000000
				CHANNELS 3 Zrotation Xrotation Yrotation
				JOINT lradius
				{
					OFFSET 0.000000 -27.561300 0.000000
					CHANNELS 3 Zrotation Xrotation Yrotation
					JOINT lhand
					{
						OFFSET 0.000000 -26.933000 0.000000
						CHANNELS 3 Zrotation Xrotation Yrotation
						End Site
						{
						    OFFSET 0.000000 -5.000000 0.000000
						}
					}
				}
			}
		}
		JOINT rclavicle
		{
			OFFSET 0.000000 39.863000 0.000000
			CHANNELS 3 Zrotation Xrotation Yrotation
			JOINT rhumerus
			{
				OFFSET -17.380600 4.958300 0.000000
				CHANNELS 3 Zrotation Xrotation Yrotation
				JOINT rradius
				{
					OFFSET 0.000000 -27.561300 0.000000
					CHANNELS 3 Zrotation Xrotation Yrotation
					JOINT rhand
					{
						OFFSET 0.000000 -26.933000 0.000000
						CHANNELS 3 Zrotation Xrotation Yrotation
						End Site
						{
						    OFFSET 0.000000 -5.000000 0.000000
						}
					}
				}
			}
		}
	}
}
MOTION
Frames:	19
Frame Time:	0.0333333
86.581400 83.165700 7.836500 -3.190071 1.077325 -103.191915 2.631809 -26.482070 -7.491406 0.000000 38.929890 0.000000 0.000000 10.549958 2.780445 0.000000 -1.690069 -0.000000 0.143471 -8.972027 -9.148776 -0.000000 37.028550 -0.000000 -0.000000 -11.556943 -13.945367 -0.000000 -29.518738 -0.000000 -0.072909 20.189975 -2.003243 12.209993 18.997881 5.746351 -14.332019 0.000000 -2.956920 29.425223 -1.279376 -22.915837 180.000033 -74.496043 155.672714 22.767466 -7.472654 0.000000 24.336950 -0.000000 9.522588 -36.539979 5.878050 26.610880 -180.000037 -72.425977 -174.874518 -13.629543 1.135082 0.000000 
85.499700 83.082000 7.959700 -3.867830 0.989141 -103.980364 2.518841 -25.701408 -6.389326 -0.000000 40.284498 -0.000000 0.000000 9.411099 2.699594 -0.000000 -1.685125 -0.000000 -0.302842 -7.911505 -8.508741 -0.000000 37.436712 0.000000 0.000000 -12.113825 -14.064330 -0.000000 -29.519571 -0.000000 -0.087773 19.450612 -2.079383 11.312282 19.684439 6.503370 -14.892612 0.000000 -2.726705 29.527263 -2.254380 -20.823405 -180.000037 -74.348578 156.892800 22.682334 -6.980659 -0.000000 24.195338 -0.000000 9.153357 -35.857990 5.274214 27.177915 180.000036 -72.513474 -172.873412 -14.563183 1.450675 -0.000000 
84.687700 82.870300 7.992600 -4.069275 0.694751 -104.760988 2.329197 -25.580892 -5.608118 -0.000000 41.638174 -0.000000 0.000000 8.274087 2.782381 -0.000000 -1.679432 0.000000 -0.832165 -7.835225 -8.152374 0.000000 38.442133 -0.000000 0.000000 -12.828515 -13.942161 -0.000000 -29.520063 -0.000000 -0.265579 18.643469 -2.020251 10.702225 20.353492 7.162242 -15.145959 0.000000 -2.313972 29.628509 -3.573831 -19.547719 -180.000037 -74.901763 156.435217 22.686300 -6.991804 0.000000 24.041235 0.000000 8.688871 -35.549579 4.947033 27.814334 -180.000035 -72.492565 -171.980372 -14.171189 1.317203 0.000000 
83.994300 82.668100 7.983700 -4.549714 0.720981 -105.449455 2.296556 -25.128002 -5.046415 -0.000000 42.864558 -0.000000 -0.000000 7.223519 3.061916 0.000000 -1.673313 0.000000 -1.178151 -7.266825 -7.975014 0.000000 39.092787 -0.000000 -0.000000 -13.444074 -13.552212 -0.000000 -29.522245 -0.000000 -0.164435 18.375030 -2.193515 10.126670 20.685645 7.862315 -15.300951 -0.000000 -1.805653 29.893985 -4.406292 -18.846170 180.000023 -75.426523 157.037514 22.371296 -6.717693 -0.000000 23.805149 0.000000 8.611880 -35.551473 5.230354 28.669091 180.000036 -72.447543 -172.484832 -12.489571 0.745012 -0.000000 
83.475100 82.527700 7.836000 -5.132726 0.829820 -105.840930 2.223539 -24.623686 -5.023933 -0.000000 43.905230 -0.000000 0.000000 6.628977 3.466076 -0.000000 -1.670577 -0.000000 -1.394948 -6.555608 -8.118509 -0.000000 39.548033 -0.000000 0.000000 -13.825013 -13.176924 -0.000000 -29.524021 -0.000000 -0.124428 18.514465 -2.399247 9.812616 20.702909 8.178068 -15.344284 -0.000000 -1.938917 30.350178 -4.334681 -18.487465 -180.000037 -75.701091 156.288540 22.947499 -6.230314 -0.000000 23.930438 -0.000000 8.267630 -36.067356 4.999514 29.697086 -180.000037 -72.880144 -172.526250 -12.377311 0.710777 -0.000000 
83.180500 82.390900 7.658000 -5.238632 0.915423 -106.113264 2.329869 -24.548999 -5.010885 0.000000 44.603600 -0.000000 0.000000 5.974059 3.770464 0.000000 -1.680092 0.000000 -1.406974 -6.352235 -8.228996 0.000000 39.864090 0.000000 -0.000000 -14.187330 -12.914703 0.000000 -29.525182 -0.000000 -0.038849 18.438974 -2.598695 9.666685 20.730745 8.728449 -15.196831 0.000000 -2.167763 30.670148 -3.997006 -18.420657 180.000030 -75.844926 155.839801 23.270424 -6.295207 0.000000 23.860892 -0.000000 8.079542 -36.318810 4.926325 30.503420 180.000036 -73.592114 -172.536867 -11.223982 0.315284 -0.000000 
83.110900 82.277700 7.435500 -5.248027 0.952268 -106.463546 2.575854 -24.552227 -4.737113 -0.000000 44.982809 0.000000 0.000000 5.618258 3.857890 0.000000 -1.675561 -0.000000 -1.205200 -6.552256 -7.795277 -0.000000 40.373468 0.000000 0.000000 -14.380978 -13.085281 0.000000 -29.526060 -0.000000 -0.054539 18.407948 -2.539900 9.680926 20.467492 8.933247 -15.074695 0.000000 -2.142609 30.855174 -3.658080 -18.746146 180.000033 -75.815083 156.035207 23.345572 -6.029400 -0.000000 23.880044 -0.000000 7.913860 -36.819946 4.989658 31.313759 -180.000036 -73.932399 -171.851745 -11.205899 0.311952 0.000000 
83.089300 82.220600 7.233900 -5.143171 0.951559 -106.364696 2.505135 -24.737072 -5.333648 -0.000000 45.279744 -0.000000 -0.000000 5.509078 4.173347 -0.000000 -1.690877 -0.000000 -1.157901 -6.633470 -8.154735 0.000000 40.502993 -0.000000 0.000000 -14.527911 -12.880709 -0.000000 -29.526258 0.000000 -0.042952 18.309223 -2.670998 9.906432 20.377109 8.862204 -14.947155 0.000000 -1.974243 30.934371 -3.521833 -19.588353 180.000031 -76.165928 155.764658 22.326515 -6.145123 0.000000 24.164864 0.000000 7.635625 -37.572066 5.191126 32.020038 -180.000036 -74.002871 -172.492014 -11.619392 0.448749 -0.000000 
83.146600 82.214000 7.017400 -5.172255 0.958337 -106.267964 2.422512 -24.688150 -5.905061 -0.000000 45.248681 -0.000000 -0.000000 5.604115 4.581211 0.000000 -1.693137 -0.000000 -1.065997 -6.534993 -8.412127 0.000000 40.434947 -0.000000 0.000000 -14.592223 -12.692486 -0.000000 -29.526583 -0.000000 -0.020859 18.419801 -2.722756 9.937479 20.310425 8.770077 -14.856520 0.000000 -2.125327 31.101106 -3.102259 -20.359596 -180.000034 -76.258992 155.507629 22.877486 -6.145740 0.000000 24.193787 0.000000 7.666120 -37.930765 5.766947 32.481434 -180.000033 -73.987936 -171.372469 -11.755335 0.493761 -0.000000 
83.229500 82.179000 6.824100 -4.923806 0.884100 -106.254372 2.389172 -24.830967 -6.341752 -0.000000 45.090702 -0.000000 -0.000000 5.355222 4.866485 -0.000000 -1.688941 -0.000000 -0.963438 -6.823992 -8.537605 0.000000 40.492058 -0.000000 -0.000000 -14.706544 -12.622003 0.000000 -29.526193 0.000000 0.040189 18.323945 -2.685813 10.078548 20.359530 8.755259 -14.810127 -0.000000 -2.150729 31.204579 -2.921136 -21.363323 180.000034 -76.335780 155.530376 22.823807 -6.509651 -0.000000 24.044374 0.000000 7.676132 -38.455934 5.991396 32.998474 180.000036 -73.887104 -171.591954 -11.775204 0.502000 -0.000000 
83.292500 82.174500 6.617500 -4.935538 0.717363 -106.250418 2.278116 -24.693273 -6.629902 -0.000000 44.843917 -0.000000 -0.000000 5.383447 5.129429 0.000000 -1.694889 0.000000 -0.919163 -6.921230 -8.364402 -0.000000 40.617654 -0.000000 -0.000000 -14.835457 -12.755391 -0.000000 -29.526122 -0.000000 -0.120732 18.274304 -2.397807 10.395595 20.317871 8.145517 -14.813483 0.000000 -2.319935 31.125729 -2.480656 -22.211170 -180.000035 -76.356626 155.260524 22.200536 -6.507375 -0.000000 24.075381 -0.000000 7.336091 -39.081152 6.090152 33.579192 180.000036 -73.776268 -172.173422 -11.014548 0.243739 0.000000 
83.346900 82.151800 6.454500 -5.012524 0.550755 -106.225944 2.108008 -24.622917 -6.835039 -0.000000 44.768710 -0.000000 -0.000000 5.444183 5.295774 -0.000000 -1.693433 -0.000000 -0.981359 -7.000089 -8.356501 0.000000 40.846148 -0.000000 0.000000 -14.985640 -12.815602 -0.000000 -29.526084 -0.000000 -0.279027 18.472044 -2.572996 10.486479 20.238919 8.297286 -14.715499 0.000000 -2.081952 30.770518 -2.086915 -22.771938 -180.000031 -76.346999 154.595496 22.851719 -6.462735 -0.000000 24.140536 0.000000 7.240603 -39.629052 5.885230 34.230182 -180.000033 -73.659761 -172.761318 -9.766768 -0.177751 -0.000000 
83.400300 82.084400 6.373600 -4.943232 0.409497 -106.068192 1.851414 -24.764547 -7.381351 -0.000000 44.800682 -0.000000 0.000000 5.331647 5.535600 -0.000000 -1.696147 0.000000 -1.109891 -7.246918 -8.618179 -0.000000 41.176535 0.000000 0.000000 -15.197902 -12.739461 0.000000 -29.525650 -0.000000 -0.222044 18.462578 -2.549828 10.574635 20.167406 8.205295 -14.721794 0.000000 -2.065550 30.322052 -1.792802 -23.333014 -180.000037 -76.353294 155.244640 22.664941 -6.438325 0.000000 24.061144 -0.000000 7.027689 -40.263541 5.861614 34.721556 -180.000037 -73.571638 -172.401735 -9.863142 -0.145218 0.000000 
83.396200 82.030500 6.213800 -4.937685 0.500070 -105.810798 1.925792 -24.815388 -7.673223 0.000000 44.950874 -0.000000 -0.000000 5.199998 5.525796 -0.000000 -1.697073 -0.000000 -0.925272 -7.221592 -8.828206 -0.000000 41.300715 -0.000000 -0.000000 -15.308839 -12.775172 -0.000000 -29.525954 0.000000 0.084377 18.561219 -2.678475 10.490353 20.447275 8.331809 -14.793287 -0.000000 -2.280874 30.054549 -1.200589 -23.636694 -180.000029 -76.546166 154.730052 22.761602 -6.519464 -0.000000 24.103285 0.000000 6.877231 -40.778988 5.825055 35.075621 180.000034 -73.508111 -173.140233 -9.451962 -0.285009 0.000000 
83.364200 81.990200 6.103100 -5.023885 0.436401 -105.754702 1.931309 -24.786940 -7.603674 -0.000000 45.064802 -0.000000 0.000000 5.181924 5.413789 -0.000000 -1.698964 -0.000000 -0.894451 -7.177718 -8.717493 -0.000000 41.458342 0.000000 0.000000 -15.467934 -12.903766 -0.000000 -29.525486 0.000000 0.159525 18.833018 -2.882452 10.491217 20.403604 8.480645 -14.687613 -0.000000 -2.135477 29.588736 -0.852158 -23.768685 -180.000033 -76.711727 154.128600 22.612256 -6.503474 0.000000 23.932448 -0.000000 7.103377 -41.130812 5.658970 35.243913 180.000037 -73.698204 -172.974653 -8.810547 -0.501382 -0.000000 
83.350100 81.898800 5.993800 -4.870931 0.393384 -105.641040 1.979965 -25.095475 -7.626586 -0.000000 45.364784 -0.000000 0.000000 5.077570 5.381895 -0.000000 -1.701960 0.000000 -0.833646 -7.406165 -8.814631 -0.000000 41.726331 0.000000 0.000000 -15.721904 -12.901776 -0.000000 -29.525258 0.000000 0.332622 18.602347 -2.737952 10.655568 20.477260 8.257643 -14.792633 -0.000000 -2.290948 29.475275 -0.375989 -24.274713 180.000029 -76.826639 155.049471 22.463261 -6.822459 -0.000000 23.999130 0.000000 7.160447 -42.086201 5.569749 35.645587 180.000035 -73.941704 -173.040130 -9.410813 -0.302072 0.000000 
83.364700 81.789100 5.915800 -4.892359 0.219009 -105.663295 1.817810 -25.227385 -7.750411 -0.000000 45.608840 -0.000000 0.000000 4.908634 5.394029 -0.000000 -1.705004 -0.000000 -0.986430 -7.707220 -8.842687 0.000000 42.339928 -0.000000 -0.000000 -16.083925 -12.948936 -0.000000 -29.524581 -0.000000 0.341900 18.729814 -2.780249 10.548860 20.477003 8.471155 -14.822393 -0.000000 -2.319239 29.595453 0.103231 -24.649695 -180.000037 -76.723257 154.730790 22.344156 -6.654899 -0.000000 23.833196 0.000000 6.996046 -42.904455 4.436053 36.439532 180.000035 -74.334402 -172.359121 -9.314723 -0.331289 -0.000000 
83.450100 81.615300 5.834400 -4.761587 0.129875 -105.773434 1.865048 -25.560018 -7.777350 0.000000 45.891835 0.000000 -0.000000 4.633561 5.234082 -0.000000 -1.706427 -0.000000 -0.916708 -8.291129 -8.614832 0.000000 43.085570 -0.000000 -0.000000 -16.544558 -13.107430 -0.000000 -29.523270 -0.000000 0.463956 18.711685 -2.502765 10.684232 20.141710 8.377055 -14.768152 -0.000000 -2.546303 29.695622 0.763790 -25.083089 180.000035 -76.515340 155.377797 21.812125 -7.024976 0.000000 23.710464 0.000000 7.065800 -44.534508 3.362762 37.257437 180.000037 -74.546335 -171.934737 -9.366546 -0.314194 -0.000000 
83.661400 81.489300 5.722800 -4.479531 0.178763 -105.753247 2.184947 -26.001556 -7.728932 -0.000000 45.954216 0.000000 0.000000 4.617787 5.115920 0.000000 -1.714136 0.000000 -0.616922 -8.975428 -8.566929 -0.000000 43.660685 -0.000000 0.000001 -16.656813 -13.443364 0.000000 -29.518820 -0.000000 0.756606 18.770822 -2.356928 10.512396 19.917936 8.701849 -14.476724 -0.000000 -2.235770 29.683583 1.032903 -25.876396 -180.000033 -76.831734 155.094483 21.760260 -6.932825 -0.000000 23.658899 -0.000000 6.955061 -46.839504 1.112810 38.712605 180.000035 -74.800313 -174.569358 -7.899645 -0.813827 -0.000000 
